<svg width="141" height="177" viewBox="0 0 141 177" fill="none" xmlns="http://www.w3.org/2000/svg">
<path d="M123.112 18.0577C110.585 6.92168 79.6285 -6.12853 56.0222 30.759M56.0222 30.759C26.5143 76.8684 73.623 86.8607 92.602 63.6815C111.581 40.5023 82.4348 17.9917 56.0222 30.759ZM56.0222 30.759C44.7456 34.2446 20.3271 45.1485 12.8658 60.8792C3.53919 80.5426 21.9131 112.662 39.0047 128.158" stroke="white" stroke-opacity="0.89" stroke-width="3" stroke-dasharray="9 9"/>
<path d="M65.5327 146.668C67.195 153.189 60.5553 158.723 54.441 155.914L35.1722 147.062C29.8264 144.606 28.8707 137.414 33.3895 133.648L47.4197 121.952C51.9386 118.185 58.8408 120.42 60.2942 126.121L65.5327 146.668Z" fill="white" fill-opacity="0.89"/>
</svg>
