<svg width="155" height="188" viewBox="0 0 155 188" fill="none" xmlns="http://www.w3.org/2000/svg">
<path d="M30.4341 18.6658C43.8443 8.61038 75.7789 -1.8197 96.2351 36.9035M96.2351 36.9035C121.806 85.3076 74.0289 91.3468 57.0437 66.6693C40.0585 41.9918 70.9761 21.9836 96.2351 36.9035ZM96.2351 36.9035C107.183 41.315 130.61 54.2123 136.737 70.5091C144.395 90.8801 123.413 121.36 105.092 135.381" stroke="white" stroke-opacity="0.89" stroke-width="3" stroke-dasharray="9 9"/>
<path d="M77.1159 151.62C74.917 157.979 81.0734 164.047 87.4001 161.756L107.338 154.538C112.87 152.535 114.421 145.447 110.231 141.318L97.222 128.496C93.0321 124.366 85.9679 126.019 84.0454 131.579L77.1159 151.62Z" fill="white" fill-opacity="0.89"/>
</svg>
