<svg width="223" height="210" viewBox="0 0 223 210" fill="none" xmlns="http://www.w3.org/2000/svg">
<path d="M145.669 23.4917C161.611 28.6663 188.526 48.7709 168.644 87.792M168.644 87.792C143.791 136.568 111.345 100.983 121.742 72.8871C132.139 44.7912 166.299 58.5494 168.644 87.792ZM168.644 87.792C171.34 99.2829 174.284 125.863 164.487 140.256C152.242 158.247 115.24 158.641 93.2277 151.734" stroke="white" stroke-opacity="0.89" stroke-width="3" stroke-dasharray="9 9"/>
<path d="M63.8427 138.211C57.3772 140.075 55.9608 148.602 61.4764 152.456L78.8586 164.601C83.6809 167.971 90.3685 165.158 91.3325 159.354L94.3257 141.336C95.2897 135.532 89.8708 130.708 84.218 132.338L63.8427 138.211Z" fill="white" fill-opacity="0.89"/>
</svg>
